<svg
    width="16"
    height="16"
    viewBox="0 0 11 12"
    fill="none"
    xmlns="http://www.w3.org/2000/svg"
>
    <path
    d="M7.64963 4.02765L4.3503 7.32757C4.29458 7.38138 4.25014 7.44574 4.21957 7.51691C4.189 7.58808 4.17291 7.66463 4.17223 7.74208C4.17156 7.81954 4.18632 7.89635 4.21565 7.96804C4.24498 8.03973 4.2883 8.10486 4.34307 8.15963C4.39784 8.2144 4.46297 8.25771 4.53466 8.28705C4.60635 8.31638 4.68316 8.33113 4.76061 8.33046C4.83807 8.32979 4.91461 8.3137 4.98578 8.28312C5.05695 8.25255 5.12132 8.20811 5.17513 8.1524L8.47505 4.85307C8.80326 4.52485 8.98765 4.07969 8.98765 3.61552C8.98765 3.15136 8.80326 2.7062 8.47505 2.37798C8.14683 2.04977 7.70167 1.86538 7.23751 1.86538C6.77334 1.86538 6.32818 2.04977 5.99996 2.37798L2.70005 5.6779C2.42359 5.94747 2.20341 6.26926 2.05229 6.62459C1.90116 6.97992 1.8221 7.36172 1.81968 7.74784C1.81726 8.13397 1.89153 8.51673 2.0382 8.87393C2.18486 9.23112 2.40098 9.55564 2.67404 9.82866C2.9471 10.1017 3.27165 10.3178 3.62886 10.4644C3.98608 10.611 4.36885 10.6852 4.75498 10.6827C5.1411 10.6803 5.52289 10.6011 5.8782 10.45C6.23351 10.2988 6.55526 10.0786 6.8248 9.80207L10.1247 6.50273L10.9495 7.32757L7.64963 10.6275C7.27044 11.0067 6.82027 11.3075 6.32483 11.5127C5.8294 11.7179 5.29839 11.8235 4.76213 11.8235C4.22587 11.8235 3.69486 11.7179 3.19943 11.5127C2.70399 11.3075 2.25382 11.0067 1.87463 10.6275C1.49544 10.2483 1.19465 9.79812 0.98943 9.30269C0.784213 8.80725 0.678589 8.27624 0.678589 7.73998C0.678589 7.20372 0.784213 6.67272 0.98943 6.17728C1.19465 5.68184 1.49544 5.23167 1.87463 4.85248L5.17513 1.55315C5.72522 1.02185 6.46198 0.72787 7.22672 0.734516C7.99146 0.741161 8.72299 1.0479 9.26377 1.58868C9.80454 2.12945 10.1113 2.86099 10.1179 3.62573C10.1246 4.39047 9.83059 5.12723 9.2993 5.67732L5.99996 8.9784C5.83741 9.14091 5.64444 9.26982 5.43206 9.35776C5.21969 9.4457 4.99208 9.49095 4.76222 9.49092C4.53236 9.49089 4.30475 9.44559 4.0924 9.3576C3.88005 9.26961 3.6871 9.14066 3.52459 8.97811C3.36207 8.81555 3.23316 8.62258 3.14523 8.41021C3.05729 8.19783 3.01204 7.97022 3.01207 7.74036C3.01209 7.5105 3.0574 7.2829 3.14538 7.07054C3.23337 6.85819 3.36233 6.66525 3.52488 6.50273L6.8248 3.20282L7.64963 4.02765Z"
    fill="#434343"
    />
</svg>