<svg width="16" height="16" viewBox="0 0 12 13" fill="none" xmlns="http://www.w3.org/2000/svg">
<path d="M10.0833 12.3361H1.91663C1.4525 12.3361 1.00738 12.1517 0.679189 11.8235C0.351001 11.4953 0.166626 11.0502 0.166626 10.5861V1.25272C0.166626 1.09801 0.228084 0.949638 0.33748 0.840242C0.446877 0.730846 0.59525 0.669388 0.749959 0.669388H8.91663C9.07134 0.669388 9.21971 0.730846 9.32911 0.840242C9.4385 0.949638 9.49996 1.09801 9.49996 1.25272V8.25272H11.8333V10.5861C11.8333 11.0502 11.6489 11.4953 11.3207 11.8235C10.9925 12.1517 10.5474 12.3361 10.0833 12.3361ZM9.49996 9.41939V10.5861C9.49996 10.7408 9.56142 10.8891 9.67081 10.9985C9.78021 11.1079 9.92858 11.1694 10.0833 11.1694C10.238 11.1694 10.3864 11.1079 10.4958 10.9985C10.6052 10.8891 10.6666 10.7408 10.6666 10.5861V9.41939H9.49996ZM8.33329 11.1694V1.83605H1.33329V10.5861C1.33329 10.7408 1.39475 10.8891 1.50415 10.9985C1.61354 11.1079 1.76192 11.1694 1.91663 11.1694H8.33329ZM2.49996 3.58605H7.16663V4.75272H2.49996V3.58605ZM2.49996 5.91939H7.16663V7.08605H2.49996V5.91939ZM2.49996 8.25272H5.41663V9.41939H2.49996V8.25272Z" fill="#434343"/>
</svg>
