<svg width="16" height="16" viewBox="0 0 12 11" fill="none" xmlns="http://www.w3.org/2000/svg">
<path d="M11.25 0.252716C11.4047 0.252716 11.553 0.314174 11.6624 0.42357C11.7718 0.532967 11.8333 0.68134 11.8333 0.836049V10.1694C11.8333 10.3241 11.7718 10.4725 11.6624 10.5819C11.553 10.6913 11.4047 10.7527 11.25 10.7527H0.749959C0.59525 10.7527 0.446877 10.6913 0.33748 10.5819C0.228084 10.4725 0.166626 10.3241 0.166626 10.1694V0.836049C0.166626 0.68134 0.228084 0.532967 0.33748 0.42357C0.446877 0.314174 0.59525 0.252716 0.749959 0.252716H11.25ZM10.6666 1.41938H1.33329V9.58605H10.6666V1.41938ZM4.48271 3.16938L6.34879 7.83605H5.09171L4.85838 7.25272H2.93921L2.70588 7.83605H1.44938L3.31604 3.16938H4.48271ZM10.0833 3.16938V7.83605H8.33329C7.86916 7.83605 7.42404 7.65167 7.09586 7.32349C6.76767 6.9953 6.58329 6.55018 6.58329 6.08605C6.58329 5.62192 6.76767 5.1768 7.09586 4.84861C7.42404 4.52042 7.86916 4.33605 8.33329 4.33605H8.91604L8.91663 3.16938H10.0833ZM8.91663 5.50272H8.33329C8.18461 5.50288 8.04161 5.55981 7.9335 5.66188C7.82538 5.76394 7.76032 5.90344 7.75161 6.05186C7.7429 6.20029 7.79119 6.34644 7.88661 6.46045C7.98204 6.57447 8.1174 6.64774 8.26504 6.6653L8.33329 6.66938H8.91663V5.50272ZM3.89938 4.8523L3.40529 6.08605H4.39229L3.89938 4.8523Z" fill="#434343"/>
</svg>
