<svg
    width="16"
    height="16"
    viewBox="0 0 10 13"
    fill="none"
    xmlns="http://www.w3.org/2000/svg"
>
    <path
    d="M0.333374 12.3361C0.333374 11.0984 0.825039 9.9114 1.70021 9.03623C2.57538 8.16106 3.76236 7.66939 5.00004 7.66939C6.23772 7.66939 7.4247 8.16106 8.29987 9.03623C9.17504 9.9114 9.66671 11.0984 9.66671 12.3361H8.50004C8.50004 11.4078 8.13129 10.5176 7.47491 9.86119C6.81854 9.20481 5.9283 8.83606 5.00004 8.83606C4.07178 8.83606 3.18154 9.20481 2.52517 9.86119C1.86879 10.5176 1.50004 11.4078 1.50004 12.3361H0.333374ZM5.00004 7.08606C3.06629 7.08606 1.50004 5.51981 1.50004 3.58606C1.50004 1.65231 3.06629 0.0860596 5.00004 0.0860596C6.93379 0.0860596 8.50004 1.65231 8.50004 3.58606C8.50004 5.51981 6.93379 7.08606 5.00004 7.08606ZM5.00004 5.91939C6.28921 5.91939 7.33337 4.87523 7.33337 3.58606C7.33337 2.29689 6.28921 1.25273 5.00004 1.25273C3.71087 1.25273 2.66671 2.29689 2.66671 3.58606C2.66671 4.87523 3.71087 5.91939 5.00004 5.91939Z"
    fill="#434343"
    />
</svg>
