<svg width="16" height="16" viewBox="0 0 12 13" fill="none" xmlns="http://www.w3.org/2000/svg">
<path d="M5.99996 0.669373C9.22113 0.669373 11.8333 2.98987 11.8333 5.85462C11.8328 6.71399 11.4912 7.53803 10.8835 8.14564C10.2758 8.75325 9.45166 9.09473 8.59229 9.09504H7.44546C6.90763 9.09504 6.47304 9.52962 6.47304 10.0675C6.47304 10.3136 6.57046 10.5405 6.71921 10.7091C6.87496 10.8841 6.97238 11.111 6.97238 11.3636C6.97238 11.902 6.52496 12.336 5.99996 12.336C2.77879 12.336 0.166626 9.72387 0.166626 6.50271C0.166626 3.28154 2.77879 0.669373 5.99996 0.669373ZM5.30638 10.0675C5.30615 9.78648 5.36132 9.50822 5.46874 9.24859C5.57615 8.98896 5.73371 8.75306 5.93239 8.55438C6.13106 8.3557 6.36697 8.19815 6.6266 8.09073C6.88623 7.98331 7.16449 7.92814 7.44546 7.92837H8.59229C9.14214 7.92806 9.6694 7.70958 10.0583 7.32089C10.4472 6.93219 10.666 6.40506 10.6666 5.85521C10.6666 3.66712 8.60629 1.83604 5.99996 1.83604C4.79571 1.83494 3.63766 2.29942 2.76793 3.13235C1.8982 3.96529 1.38413 5.1022 1.33321 6.30537C1.28229 7.50854 1.69845 8.68482 2.49469 9.58827C3.29093 10.4917 4.40559 11.0524 5.60563 11.153C5.41031 10.8248 5.30694 10.45 5.30638 10.068V10.0675ZM3.37496 6.50271C3.14289 6.50271 2.92034 6.41052 2.75624 6.24642C2.59215 6.08233 2.49996 5.85977 2.49996 5.62771C2.49996 5.39564 2.59215 5.17308 2.75624 5.00899C2.92034 4.84489 3.14289 4.75271 3.37496 4.75271C3.60702 4.75271 3.82958 4.84489 3.99368 5.00899C4.15777 5.17308 4.24996 5.39564 4.24996 5.62771C4.24996 5.85977 4.15777 6.08233 3.99368 6.24642C3.82958 6.41052 3.60702 6.50271 3.37496 6.50271ZM8.62496 6.50271C8.3929 6.50271 8.17034 6.41052 8.00624 6.24642C7.84215 6.08233 7.74996 5.85977 7.74996 5.62771C7.74996 5.39564 7.84215 5.17308 8.00624 5.00899C8.17034 4.84489 8.3929 4.75271 8.62496 4.75271C8.85702 4.75271 9.07958 4.84489 9.24368 5.00899C9.40777 5.17308 9.49996 5.39564 9.49996 5.62771C9.49996 5.85977 9.40777 6.08233 9.24368 6.24642C9.07958 6.41052 8.85702 6.50271 8.62496 6.50271ZM5.99996 4.75271C5.7679 4.75271 5.54534 4.66052 5.38124 4.49642C5.21715 4.33233 5.12496 4.10977 5.12496 3.87771C5.12496 3.64564 5.21715 3.42308 5.38124 3.25899C5.54534 3.09489 5.7679 3.00271 5.99996 3.00271C6.23202 3.00271 6.45458 3.09489 6.61868 3.25899C6.78277 3.42308 6.87496 3.64564 6.87496 3.87771C6.87496 4.10977 6.78277 4.33233 6.61868 4.49642C6.45458 4.66052 6.23202 4.75271 5.99996 4.75271Z" fill="#434343"/>
</svg>
