<svg width="14" height="14" viewBox="0 0 14 14" fill="none" xmlns="http://www.w3.org/2000/svg">
<path d="M2.84274 4.33334L2.64608 3.84667C2.61327 3.76547 2.59678 3.67861 2.59755 3.59103C2.59832 3.50346 2.61634 3.4169 2.65058 3.33629C2.68481 3.25568 2.7346 3.18261 2.79708 3.12125C2.85957 3.05989 2.93353 3.01144 3.01474 2.97867L9.19608 0.481338C9.3599 0.415246 9.54326 0.416879 9.70589 0.485878C9.86851 0.554877 9.9971 0.685601 10.0634 0.849338L13.8101 10.1213C13.8429 10.2025 13.8594 10.2894 13.8586 10.377C13.8578 10.4645 13.8398 10.5511 13.8056 10.6317C13.7713 10.7123 13.7216 10.7854 13.6591 10.8468C13.5966 10.9081 13.5226 10.9566 13.4414 10.9893L7.26008 13.4867C7.17888 13.5195 7.09201 13.536 7.00444 13.5352C6.91687 13.5344 6.8303 13.5164 6.7497 13.4822C6.66909 13.4479 6.59602 13.3982 6.53466 13.3357C6.47329 13.2732 6.42485 13.1992 6.39208 13.118L6.33341 12.9733V13H3.66674C3.48993 13 3.32036 12.9298 3.19534 12.8047C3.07032 12.6797 3.00008 12.5101 3.00008 12.3333V12.1533L0.766744 11.2513C0.602843 11.185 0.471994 11.0563 0.402982 10.8936C0.333969 10.7308 0.332444 10.5472 0.398744 10.3833L2.84274 4.33334ZM4.33341 11.6667H5.80608L4.33341 8.022V11.6667ZM3.00008 7.504L1.88474 10.2647L3.00008 10.7387V7.504ZM4.13208 3.96467L7.37874 12.0007L12.3241 10.0027L9.07741 1.96734L4.13208 3.96467ZM6.11741 5.32C5.95342 5.38622 5.76984 5.38458 5.60706 5.31544C5.44428 5.2463 5.31563 5.11533 5.24941 4.95134C5.18319 4.78735 5.18484 4.60377 5.25398 4.44098C5.32311 4.2782 5.45408 4.14955 5.61808 4.08334C5.78207 4.01703 5.96568 4.01859 6.12853 4.08767C6.29137 4.15674 6.42011 4.28768 6.48641 4.45167C6.55271 4.61566 6.55116 4.79928 6.48208 4.96212C6.41301 5.12497 6.28207 5.2537 6.11808 5.32H6.11741Z" fill="#434343"/>
</svg>
