<svg width="13" height="14" viewBox="0 0 13 14" fill="none" xmlns="http://www.w3.org/2000/svg">
<path d="M12.5002 1.87501H9.87524V0.875007C9.87524 0.806257 9.81899 0.750007 9.75024 0.750007H8.87524C8.80649 0.750007 8.75024 0.806257 8.75024 0.875007V1.87501H4.75024V0.875007C4.75024 0.806257 4.69399 0.750007 4.62524 0.750007H3.75024C3.68149 0.750007 3.62524 0.806257 3.62524 0.875007V1.87501H1.00024C0.723675 1.87501 0.500237 2.09844 0.500237 2.37501V12.75C0.500237 13.0266 0.723675 13.25 1.00024 13.25H12.5002C12.7768 13.25 13.0002 13.0266 13.0002 12.75V2.37501C13.0002 2.09844 12.7768 1.87501 12.5002 1.87501ZM11.8752 12.125H1.62524V6.18751H11.8752V12.125ZM1.62524 5.12501V3.00001H3.62524V3.75001C3.62524 3.81876 3.68149 3.87501 3.75024 3.87501H4.62524C4.69399 3.87501 4.75024 3.81876 4.75024 3.75001V3.00001H8.75024V3.75001C8.75024 3.81876 8.80649 3.87501 8.87524 3.87501H9.75024C9.81899 3.87501 9.87524 3.81876 9.87524 3.75001V3.00001H11.8752V5.12501H1.62524Z" fill="#FFA544"/>
</svg>
