<svg width="64" height="64" viewBox="0 0 64 64" fill="none" xmlns="http://www.w3.org/2000/svg">
<path d="M45.7102 39.5579C45.4772 43.9895 43.7721 48.3579 40.5843 51.8737L28.1929 39.5579H45.7102Z" fill="#FE8D00"/>
<path d="M26.6996 41.0526L39.0909 53.3684C35.5536 56.5369 31.1584 58.2316 26.6996 58.4632V41.0526Z" fill="#FE8D00"/>
<path d="M24.5814 41.0526V58.4632C20.1227 58.2316 15.7274 56.5263 12.2007 53.3684L24.5814 41.0526Z" fill="#FE8D00"/>
<path d="M23.0881 39.5579L10.6968 51.8737C7.50893 48.3579 5.8038 43.9895 5.5708 39.5684H23.0881V39.5579Z" fill="#FE8D00"/>
<path d="M10.6968 25.1474L23.0881 37.4632H5.5708C5.8038 33.0211 7.50893 28.6632 10.6968 25.1474Z" fill="#FE8D00"/>
<path d="M12.2007 23.6526L24.592 35.9684V18.5579C20.1227 18.7895 15.738 20.4842 12.2007 23.6526Z" fill="#FE8D00"/>
<path d="M40.5843 25.1474C43.7721 28.6632 45.4772 33.0316 45.7102 37.4632H28.2035L40.5843 25.1474Z" fill="#FE8D00"/>
<path d="M9.8707 22.7158C18.6082 14.0316 32.7894 14.0316 41.5268 22.7158C50.2643 31.4 50.2643 45.4947 41.5268 54.179C32.7894 62.8632 18.6082 62.8632 9.8707 54.179C1.13322 45.4947 1.13322 31.4105 9.8707 22.7158ZM7.53011 20.3895C5.07303 22.8316 3.17726 25.6737 1.88518 28.8421C0.635453 31.9053 0 35.1368 0 38.4526C0 41.7684 0.635453 45 1.88518 48.0632C3.17726 51.2316 5.07303 54.0737 7.53011 56.5158C9.9872 58.9579 12.8467 60.8421 16.0346 62.1263C19.1165 63.3684 22.3679 64 25.7041 64C29.0402 64 32.2916 63.3684 35.3735 62.1263C38.5614 60.8421 41.4209 58.9579 43.878 56.5158C46.3351 54.0737 48.2309 51.2316 49.5229 48.0632C50.7727 45 51.4081 41.7684 51.4081 38.4526C51.4081 35.1368 50.7727 31.9053 49.5229 28.8421C48.2309 25.6737 46.3351 22.8316 43.878 20.3895C41.4209 17.9474 38.5614 16.0632 35.3735 14.779C32.2916 13.5369 29.0402 12.9053 25.7041 12.9053C22.3679 12.9053 19.1165 13.5369 16.0346 14.779C12.8361 16.0632 9.97661 17.9474 7.53011 20.3895Z" fill="#FE8D00"/>
<path d="M62.7291 0H26.9213C26.2223 0 25.6504 0.568421 25.6504 1.26316V21.0211C25.6504 21.8737 26.3494 22.5684 27.2073 22.5684H29.0395V30.6737L37.1945 22.5684H62.7185C63.4175 22.5684 63.9894 22 63.9894 21.3053V1.26316C64 0.568421 63.4281 0 62.7291 0ZM35.5847 13.0421C34.3773 13.0421 33.3924 12.0632 33.3924 10.8632C33.3924 9.66316 34.3773 8.68421 35.5847 8.68421C36.792 8.68421 37.777 9.66316 37.777 10.8632C37.777 12.0632 36.792 13.0421 35.5847 13.0421ZM45.0211 13.0421C43.8138 13.0421 42.8288 12.0632 42.8288 10.8632C42.8288 9.66316 43.8138 8.68421 45.0211 8.68421C46.2285 8.68421 47.2134 9.66316 47.2134 10.8632C47.2134 12.0632 46.2285 13.0421 45.0211 13.0421ZM54.447 13.0421C53.2396 13.0421 52.2547 12.0632 52.2547 10.8632C52.2547 9.66316 53.2396 8.68421 54.447 8.68421C55.6544 8.68421 56.6393 9.66316 56.6393 10.8632C56.6393 12.0632 55.665 13.0421 54.447 13.0421Z" fill="#FFA940"/>
</svg>
